HIERARCHY
ROOT hips
{
	OFFSET 0.000000 104.274902 0.000000
	CHANNELS 6 Xposition Yposition Zposition Xrotation Yrotation Zrotation
	JOINT spine
	{
		OFFSET 0.000000 10.181549 0.131524
		CHANNELS 6 Xposition Yposition Zposition Xrotation Yrotation Zrotation
		JOINT chest
		{
			OFFSET 0.000000 9.893990 -1.470706
			CHANNELS 3 Xrotation Yrotation Zrotation
			JOINT upperChest
			{
				OFFSET 0.000000 9.220787 -1.370637
				CHANNELS 3 Xrotation Yrotation Zrotation
				JOINT neck
				{
					OFFSET 0.000000 16.740372 -2.049022
					CHANNELS 6 Xposition Yposition Zposition Xrotation Yrotation Zrotation
					JOINT head
					{
						OFFSET 0.000000 9.617859 1.684976
						CHANNELS 6 Xposition Yposition Zposition Xrotation Yrotation Zrotation
						JOINT headEnd
						{
							OFFSET 0.000000 22.037384 7.501072
							CHANNELS 6 Xposition Yposition Zposition Xrotation Yrotation Zrotation
							End Site
							{
								OFFSET 0.000000 23.106567 -2.828246
							}
						}
					}
				}
				JOINT rightShoulder
				{
					OFFSET -4.570000 11.014877 -2.160840
					CHANNELS 6 Xposition Yposition Zposition Xrotation Yrotation Zrotation
					JOINT rightUpperArm
					{
						OFFSET -10.592867 -0.524796 -2.232105
						CHANNELS 3 Xrotation Yrotation Zrotation
						JOINT rightLowerArm
						{
							OFFSET -27.841497 0.000000 -0.000002
							CHANNELS 3 Xrotation Yrotation Zrotation
							JOINT rightHand
							{
								OFFSET -28.328812 0.000000 -0.000001
								CHANNELS 3 Xrotation Yrotation Zrotation
								JOINT rightThumbProximal
								{
									OFFSET -2.464798 -1.573990 2.681911
									CHANNELS 6 Xposition Yposition Zposition Xrotation Yrotation Zrotation
									JOINT rightThumbIntermediate
									{
										OFFSET -3.244781 -1.873383 1.873376
										CHANNELS 3 Xrotation Yrotation Zrotation
										JOINT rightThumbDistal
										{
											OFFSET -2.646263 -1.527817 1.527818
											CHANNELS 6 Xposition Yposition Zposition Xrotation Yrotation Zrotation
											JOINT rightHandThumb4
											{
												OFFSET -1.994591 -1.151581 1.151575
												CHANNELS 6 Xposition Yposition Zposition Xrotation Yrotation Zrotation
												End Site
												{
													OFFSET -1.860176 -1.142715 1.365483
												}
											}
										}
									}
								}
								JOINT rightIndexProximal
								{
									OFFSET -9.108299 -0.517883 2.259803
									CHANNELS 6 Xposition Yposition Zposition Xrotation Yrotation Zrotation
									JOINT rightIndexIntermediate
									{
										OFFSET -3.699997 0.000000 0.000000
										CHANNELS 3 Xrotation Yrotation Zrotation
										JOINT rightIndexDistal
										{
											OFFSET -2.850006 0.000000 0.000000
											CHANNELS 3 Xrotation Yrotation Zrotation
											JOINT rightHandIndex4
											{
												OFFSET -2.772194 0.000000 0.000000
												CHANNELS 3 Xrotation Yrotation Zrotation
												End Site
												{
													OFFSET -2.772202 0.000000 -0.000484
												}
											}
										}
									}
								}
								JOINT rightMiddleProximal
								{
									OFFSET -9.532501 0.000000 -0.000000
									CHANNELS 6 Xposition Yposition Zposition Xrotation Yrotation Zrotation
									JOINT rightMiddleIntermediate
									{
										OFFSET -3.699997 0.000000 0.000000
										CHANNELS 3 Xrotation Yrotation Zrotation
										JOINT rightMiddleDistal
										{
											OFFSET -2.949997 0.000000 0.000000
											CHANNELS 3 Xrotation Yrotation Zrotation
											JOINT rightHandMiddle4
											{
												OFFSET -2.946594 0.000000 0.000000
												CHANNELS 3 Xrotation Yrotation Zrotation
												End Site
												{
													OFFSET -2.946602 0.000000 -0.000982
												}
											}
										}
									}
								}
								JOINT rightRingProximal
								{
									OFFSET -9.103600 -0.043106 -1.865100
									CHANNELS 6 Xposition Yposition Zposition Xrotation Yrotation Zrotation
									JOINT rightRingIntermediate
									{
										OFFSET -3.379303 0.000000 0.000000
										CHANNELS 3 Xrotation Yrotation Zrotation
										JOINT rightRingDistal
										{
											OFFSET -2.889694 0.000000 0.000000
											CHANNELS 3 Xrotation Yrotation Zrotation
											JOINT rightHandRing4
											{
												OFFSET -2.638802 0.000000 0.000000
												CHANNELS 3 Xrotation Yrotation Zrotation
												End Site
												{
													OFFSET -2.638802 0.000000 0.004218
												}
											}
										}
									}
								}
								JOINT rightLittleProximal
								{
									OFFSET -8.076698 -0.486725 -3.806299
									CHANNELS 6 Xposition Yposition Zposition Xrotation Yrotation Zrotation
									JOINT rightLittleIntermediate
									{
										OFFSET -3.600006 0.000000 0.000000
										CHANNELS 3 Xrotation Yrotation Zrotation
										JOINT rightLittleDistal
										{
											OFFSET -2.099998 0.000000 0.000000
											CHANNELS 3 Xrotation Yrotation Zrotation
											JOINT rightHandPinky4
											{
												OFFSET -2.115791 0.000000 0.000000
												CHANNELS 3 Xrotation Yrotation Zrotation
												End Site
												{
													OFFSET -2.115799 0.000000 0.000174
												}
											}
										}
									}
								}
							}
						}
					}
				}
				JOINT leftShoulder
				{
					OFFSET 4.570400 11.014679 -2.160816
					CHANNELS 6 Xposition Yposition Zposition Xrotation Yrotation Zrotation
					JOINT leftUpperArm
					{
						OFFSET 10.592373 -0.524597 -2.232116
						CHANNELS 3 Xrotation Yrotation Zrotation
						JOINT leftLowerArm
						{
							OFFSET 27.841488 0.000000 0.000001
							CHANNELS 3 Xrotation Yrotation Zrotation
							JOINT leftHand
							{
								OFFSET 28.328808 0.000000 -0.000000
								CHANNELS 3 Xrotation Yrotation Zrotation
								JOINT leftThumbProximal
								{
									OFFSET 2.466103 -1.576202 2.681698
									CHANNELS 6 Xposition Yposition Zposition Xrotation Yrotation Zrotation
									JOINT leftThumbIntermediate
									{
										OFFSET 3.243317 -1.872528 1.872530
										CHANNELS 3 Xrotation Yrotation Zrotation
										JOINT leftThumbDistal
										{
											OFFSET 2.647881 -1.528763 1.528754
											CHANNELS 6 Xposition Yposition Zposition Xrotation Yrotation Zrotation
											JOINT leftHandThumb4
											{
												OFFSET 1.998924 -1.154083 1.154080
												CHANNELS 6 Xposition Yposition Zposition Xrotation Yrotation Zrotation
												End Site
												{
													OFFSET 1.884041 -1.149155 1.337651
												}
											}
										}
									}
								}
								JOINT leftIndexProximal
								{
									OFFSET 9.109299 -0.518005 2.259900
									CHANNELS 6 Xposition Yposition Zposition Xrotation Yrotation Zrotation
									JOINT leftIndexIntermediate
									{
										OFFSET 3.699997 0.000000 0.000000
										CHANNELS 3 Xrotation Yrotation Zrotation
										JOINT leftIndexDistal
										{
											OFFSET 2.850006 0.000000 0.000000
											CHANNELS 3 Xrotation Yrotation Zrotation
											JOINT leftHandIndex4
											{
												OFFSET 2.774895 0.000000 0.000000
												CHANNELS 3 Xrotation Yrotation Zrotation
												End Site
												{
													OFFSET 2.774902 0.000000 -0.000072
												}
											}
										}
									}
								}
								JOINT leftMiddleProximal
								{
									OFFSET 9.533401 0.000000 0.000000
									CHANNELS 6 Xposition Yposition Zposition Xrotation Yrotation Zrotation
									JOINT leftMiddleIntermediate
									{
										OFFSET 3.699997 0.000000 0.000000
										CHANNELS 3 Xrotation Yrotation Zrotation
										JOINT leftMiddleDistal
										{
											OFFSET 2.949997 0.000000 0.000000
											CHANNELS 3 Xrotation Yrotation Zrotation
											JOINT leftHandMiddle4
											{
												OFFSET 2.952896 0.000000 0.000000
												CHANNELS 3 Xrotation Yrotation Zrotation
												End Site
												{
													OFFSET 2.952904 0.000000 0.000165
												}
											}
										}
									}
								}
								JOINT leftRingProximal
								{
									OFFSET 9.104500 -0.042999 -1.865101
									CHANNELS 6 Xposition Yposition Zposition Xrotation Yrotation Zrotation
									JOINT leftRingIntermediate
									{
										OFFSET 3.149994 0.000000 0.000000
										CHANNELS 3 Xrotation Yrotation Zrotation
										JOINT leftRingDistal
										{
											OFFSET 2.950005 0.000000 0.000000
											CHANNELS 3 Xrotation Yrotation Zrotation
											JOINT leftHandRing4
											{
												OFFSET 2.644302 0.000000 0.000000
												CHANNELS 3 Xrotation Yrotation Zrotation
												End Site
												{
													OFFSET 2.644302 0.000000 0.000083
												}
											}
										}
									}
								}
								JOINT leftLittleProximal
								{
									OFFSET 8.077805 -0.486893 -3.806302
									CHANNELS 6 Xposition Yposition Zposition Xrotation Yrotation Zrotation
									JOINT leftLittleIntermediate
									{
										OFFSET 3.600006 0.000000 0.000000
										CHANNELS 3 Xrotation Yrotation Zrotation
										JOINT leftLittleDistal
										{
											OFFSET 2.099998 0.000000 0.000000
											CHANNELS 3 Xrotation Yrotation Zrotation
											JOINT leftHandPinky4
											{
												OFFSET 2.125496 0.000000 0.000000
												CHANNELS 3 Xrotation Yrotation Zrotation
												End Site
												{
													OFFSET 2.125504 0.000000 -0.001254
												}
											}
										}
									}
								}
							}
						}
					}
				}
			}
		}
	}
	JOINT rightUpperLeg
	{
		OFFSET -8.207800 -6.751701 -1.599544
		CHANNELS 6 Xposition Yposition Zposition Xrotation Yrotation Zrotation
		JOINT rightLowerLeg
		{
			OFFSET 0.000004 -44.370152 0.345934
			CHANNELS 3 Xrotation Yrotation Zrotation
			JOINT rightFoot
			{
				OFFSET 0.000004 -44.423664 -3.043535
				CHANNELS 3 Xrotation Yrotation Zrotation
				JOINT rightToes
				{
					OFFSET 0.000001 -8.728691 10.710592
					CHANNELS 3 Xrotation Yrotation Zrotation
					JOINT rightToesEnd
					{
						OFFSET 0.000000 -0.000665 9.278101
						CHANNELS 3 Xrotation Yrotation Zrotation
						End Site
						{
							OFFSET 0.000000 -0.000665 9.278103
						}
					}
				}
			}
		}
	}
	JOINT leftUpperLeg
	{
		OFFSET 8.207800 -6.751701 -1.599544
		CHANNELS 6 Xposition Yposition Zposition Xrotation Yrotation Zrotation
		JOINT leftLowerLeg
		{
			OFFSET 0.000004 -44.370037 0.346940
			CHANNELS 3 Xrotation Yrotation Zrotation
			JOINT leftFoot
			{
				OFFSET 0.000004 -44.423611 -3.044388
				CHANNELS 3 Xrotation Yrotation Zrotation
				JOINT leftToes
				{
					OFFSET 0.000001 -8.728690 10.710592
					CHANNELS 3 Xrotation Yrotation Zrotation
					JOINT leftToesEnd
					{
						OFFSET 0.000000 -0.000680 9.278101
						CHANNELS 3 Xrotation Yrotation Zrotation
						End Site
						{
							OFFSET 0.000000 -0.000680 9.278101
						}
					}
				}
			}
		}
	}
}
MOTION
Frames: 4
Frame Time: 0.033333
0.455494 100.202393 1.168845 -2.435388 0.118420 -4.482780 -0.000001 10.181551 0.131523 1.720939 0.027979 1.366447 3.443622 0.243801 0.717516 3.443622 0.243801 0.717516 0.000001 16.740364 -2.049021 -0.812259 -1.553415 3.718981 0.000001 9.617854 1.684975 0.907150 2.352042 4.325587 0.000000 22.037369 7.501074 -0.000000 -0.000000 -0.000000 -4.570000 11.014878 -2.160843 0.626916 3.035681 20.155818 -6.823785 19.799475 54.201243 23.947693 7.000475 -3.476543 -5.574863 10.270080 -4.776455 -2.464789 -1.573995 2.681907 4.280805 -15.890124 -2.422287 1.836936 -18.253850 -10.474597 -2.646287 -1.527808 1.527823 -2.576143 5.196133 1.002207 -1.994594 -1.151579 1.151577 0.000000 -0.000003 0.000001 -9.108289 -0.517878 2.259800 0.815697 -7.341105 29.157794 1.921623 0.060854 16.932188 4.528748 2.821027 11.169176 0.000006 -0.000003 -0.000001 -9.532495 0.000010 -0.000003 1.407102 -8.005368 40.252245 4.496530 0.856184 17.907007 6.072493 4.827153 12.436046 -0.000001 0.000003 0.000002 -9.103594 -0.043119 -1.865100 2.288412 -9.822524 52.036032 5.775678 0.626591 14.653875 6.114403 6.591905 12.764647 0.000003 0.000001 -0.000001 -8.076704 -0.486723 -3.806299 0.338218 -8.339696 60.178065 8.289392 -0.760750 14.380704 10.669916 0.128443 12.856354 0.000001 0.000003 0.000002 4.570399 11.014700 -2.160816 0.577960 -9.651117 -9.869766 -1.791110 -9.553046 -71.206054 32.363550 -4.837730 3.604602 -5.478289 -6.421388 -2.966713 2.466088 -1.576208 2.681693 44.596296 5.219657 31.157947 2.426595 20.932139 10.996091 2.647889 -1.528755 1.528750 -4.919813 -10.077536 -2.388547 1.998925 -1.154092 1.154080 -0.000002 -0.000001 -0.000000 9.109292 -0.518010 2.259899 0.151990 4.943529 -1.638173 2.820238 1.655653 -38.330912 4.413799 -2.297969 -5.968702 0.000002 0.000000 0.000001 9.533393 0.000007 0.000000 0.398724 6.167460 -16.901267 5.414325 0.826676 -39.294819 5.759508 -0.110551 -7.097907 -0.000002 -0.000002 -0.000001 9.104500 -0.042993 -1.865100 0.946334 8.272356 -29.052172 6.596223 1.106064 -36.045340 5.813650 -0.147285 -11.497864 -0.000000 0.000001 -0.000001 8.077789 -0.486884 -3.806299 0.962326 7.927188 -30.796035 9.105808 2.503112 -35.791400 9.816665 4.559762 -7.505629 -0.000001 -0.000000 0.000001 -8.207797 -6.751713 -1.599543 -10.657363 -4.041485 7.415767 27.115523 -10.081883 -0.144831 -14.156195 -0.097167 -1.081028 -0.146934 -0.005750 0.000002 -0.000000 0.000000 0.000000 8.207799 -6.751708 -1.599546 -24.500566 4.131797 4.720585 60.450132 10.793185 0.807445 -5.384995 -0.462083 5.753580 -1.734889 0.000002 0.000003 -0.000001 0.000000 0.000000 
0.265198 100.502449 4.275696 -1.879500 0.039151 -3.125648 -0.000000 10.181557 0.131522 1.678754 0.406758 1.046552 3.367454 0.847491 0.475021 3.367451 0.847491 0.475022 0.000000 16.740343 -2.049021 -0.925945 -1.656135 2.836016 0.000001 9.617839 1.684978 0.526801 1.345453 4.874558 0.000003 22.037384 7.501071 -0.000000 -0.000000 -0.000000 -4.569999 11.014861 -2.160838 0.530598 4.114296 19.041288 -9.338498 21.965106 52.978089 21.591867 8.664663 -3.746147 -5.510243 9.607184 -4.406514 -2.464791 -1.573982 2.681911 4.280806 -15.890121 -2.422281 1.836939 -18.253846 -10.474601 -2.646280 -1.527817 1.527820 -2.576141 5.196133 1.002210 -1.994590 -1.151586 1.151576 -0.000000 -0.000005 -0.000000 -9.108304 -0.517886 2.259801 0.815697 -7.341104 29.157794 1.921626 0.060854 16.932188 4.528747 2.821029 11.169174 -0.000006 -0.000000 0.000002 -9.532509 -0.000001 -0.000003 1.407105 -8.005368 40.252238 4.496531 0.856185 17.907006 6.072498 4.827153 12.436049 -0.000003 0.000005 0.000001 -9.103598 -0.043115 -1.865105 2.288413 -9.822522 52.036039 5.775678 0.626590 14.653874 6.114404 6.591910 12.764643 -0.000001 0.000002 0.000004 -8.076696 -0.486730 -3.806298 0.338220 -8.339695 60.178065 8.289394 -0.760753 14.380705 10.669917 0.128445 12.856356 -0.000003 0.000004 0.000005 4.570399 11.014666 -2.160813 0.540442 -8.511836 -10.696727 1.588768 -6.411479 -71.592451 30.520287 -5.452413 3.712222 -5.498358 -6.360084 -2.989228 2.466100 -1.576213 2.681693 44.596303 5.219657 31.157947 2.426594 20.932141 10.996086 2.647905 -1.528762 1.528760 -4.919813 -10.077534 -2.388551 1.998933 -1.154086 1.154075 0.000002 -0.000001 -0.000000 9.109301 -0.518010 2.259900 0.151989 4.943530 -1.638173 2.820244 1.655653 -38.330912 4.413799 -2.297970 -5.968700 0.000001 0.000001 0.000002 9.533408 0.000007 0.000001 0.398728 6.167460 -16.901269 5.414330 0.826676 -39.294823 5.759512 -0.110550 -7.097900 -0.000001 0.000001 -0.000001 9.104492 -0.042993 -1.865103 0.946333 8.272355 -29.052172 6.596229 1.106065 -36.045343 5.813647 -0.147290 -11.497864 -0.000000 -0.000002 0.000001 8.077788 -0.486887 -3.806303 0.962329 7.927189 -30.796039 9.105812 2.503113 -35.791400 9.816665 4.559765 -7.505629 0.000001 0.000001 -0.000001 -8.207800 -6.751707 -1.599544 -8.579629 -4.171544 6.012740 25.861816 -9.403858 -0.108884 -15.556855 -0.041393 -0.945374 -0.042489 0.000867 -0.005331 0.000000 -0.000000 -0.000000 8.207801 -6.751694 -1.599545 -26.256226 4.218400 2.037022 51.386921 12.670802 0.805870 -4.900113 -0.377404 5.294948 -1.917904 0.088561 -2.198520 -0.000001 -0.000000 0.000001 
0.075727 100.862236 7.332564 -1.295585 -0.007156 -1.941718 -0.000000 10.181549 0.131525 1.642184 0.753763 0.705107 3.296684 1.446330 0.305221 3.296685 1.446330 0.305221 0.000000 16.740360 -2.049018 -1.055067 -1.809075 2.064726 0.000000 9.617852 1.684978 0.171670 0.273628 5.384257 0.000000 22.037369 7.501072 -0.000001 -0.000000 -0.000000 -4.569996 11.014874 -2.160839 0.476083 4.955541 18.203322 -11.396556 24.111179 51.474986 19.213910 10.561976 -3.946499 -5.378821 8.982381 -4.795775 -2.464801 -1.574006 2.681908 4.280799 -15.890119 -2.422284 1.836929 -18.253846 -10.474598 -2.646253 -1.527809 1.527817 -2.576136 5.196131 1.002212 -1.994594 -1.151583 1.151578 0.000004 -0.000007 0.000001 -9.108319 -0.517874 2.259804 0.815697 -7.341106 29.157794 1.921624 0.060853 16.932189 4.528744 2.821027 11.169173 -0.000004 -0.000001 -0.000001 -9.532498 0.000007 0.000003 1.407107 -8.005364 40.252238 4.496535 0.856184 17.907006 6.072496 4.827159 12.436048 -0.000002 0.000001 0.000001 -9.103590 -0.043115 -1.865102 2.288413 -9.822522 52.036035 5.775681 0.626590 14.653874 6.114408 6.591906 12.764647 -0.000001 0.000002 0.000001 -8.076696 -0.486723 -3.806295 0.338218 -8.339698 60.178065 8.289392 -0.760749 14.380705 10.669915 0.128445 12.856356 -0.000000 0.000004 0.000003 4.570405 11.014653 -2.160813 0.526586 -7.570840 -11.373504 5.013264 -3.968005 -71.835114 28.533858 -6.572142 4.025922 -5.527378 -6.515538 -2.773489 2.466111 -1.576207 2.681696 44.596303 5.219654 31.157947 2.426591 20.932141 10.996091 2.647892 -1.528750 1.528759 -4.919815 -10.077534 -2.388546 1.998921 -1.154070 1.154077 -0.000000 0.000000 -0.000002 9.109301 -0.518011 2.259902 0.151984 4.943530 -1.638173 2.820242 1.655653 -38.330912 4.413796 -2.297970 -5.968698 0.000002 -0.000004 0.000004 9.533415 0.000003 0.000000 0.398724 6.167461 -16.901269 5.414327 0.826676 -39.294819 5.759512 -0.110551 -7.097907 -0.000001 0.000003 -0.000002 9.104507 -0.043001 -1.865102 0.946327 8.272356 -29.052172 6.596228 1.106066 -36.045343 5.813647 -0.147288 -11.497864 0.000001 -0.000001 0.000001 8.077819 -0.486885 -3.806299 0.962319 7.927189 -30.796039 9.105804 2.503115 -35.791400 9.816665 4.559764 -7.505627 0.000001 -0.000000 -0.000000 -8.207799 -6.751714 -1.599543 -6.087133 -4.111623 4.891918 23.542417 -9.052006 -0.100064 -16.359128 -0.002333 -0.816434 -0.015228 0.010343 -0.026174 0.000000 -0.000001 -0.000000 8.207799 -6.751714 -1.599544 -27.473874 3.942488 -0.377247 40.497735 13.807855 0.724929 -1.734438 -0.379784 6.284430 -1.314125 0.117118 -1.885351 0.000001 -0.000002 0.000000 
-0.069586 101.222015 10.384099 -0.660997 0.046206 -1.064741 -0.000000 10.181550 0.131523 1.585401 1.030040 0.362048 3.177756 1.992945 0.221610 3.177756 1.992946 0.221611 0.000000 16.740389 -2.049020 -1.109826 -2.023135 1.521794 0.000000 9.617826 1.684974 -0.074283 -0.813438 5.854832 0.000002 22.037384 7.501071 -0.000000 -0.000000 -0.000000 -4.570002 11.014866 -2.160840 0.446094 5.503098 17.707930 -12.981267 25.926655 49.850327 17.089615 12.504525 -4.063089 -5.214376 8.550955 -5.918749 -2.464791 -1.574002 2.681907 4.280802 -15.890121 -2.422289 1.836943 -18.253848 -10.474605 -2.646266 -1.527817 1.527815 -2.576145 5.196127 1.002211 -1.994597 -1.151573 1.151579 0.000001 -0.000002 -0.000004 -9.108289 -0.517878 2.259802 0.815699 -7.341106 29.157791 1.921620 0.060853 16.932188 4.528743 2.821029 11.169175 -0.000001 -0.000003 -0.000001 -9.532498 -0.000001 -0.000003 1.407109 -8.005365 40.252238 4.496533 0.856186 17.907007 6.072492 4.827153 12.436047 -0.000002 0.000002 0.000001 -9.103586 -0.043112 -1.865106 2.288410 -9.822522 52.036035 5.775684 0.626587 14.653872 6.114405 6.591904 12.764644 0.000000 0.000001 -0.000001 -8.076693 -0.486738 -3.806297 0.338220 -8.339697 60.178058 8.289390 -0.760751 14.380707 10.669914 0.128443 12.856352 0.000001 0.000001 0.000002 4.570401 11.014685 -2.160815 0.525759 -6.909526 -11.783277 8.393091 -2.019882 -72.052219 26.886252 -7.840677 4.389131 -5.537612 -6.780428 -2.228146 2.466084 -1.576209 2.681689 44.596306 5.219656 31.157947 2.426594 20.932141 10.996085 2.647894 -1.528749 1.528748 -4.919816 -10.077538 -2.388546 1.998921 -1.154079 1.154077 0.000003 -0.000001 0.000001 9.109294 -0.518010 2.259901 0.151990 4.943530 -1.638173 2.820247 1.655653 -38.330912 4.413800 -2.297972 -5.968697 0.000002 -0.000002 0.000004 9.533401 0.000003 -0.000000 0.398725 6.167460 -16.901269 5.414333 0.826676 -39.294823 5.759510 -0.110553 -7.097904 -0.000001 -0.000000 -0.000003 9.104485 -0.042993 -1.865102 0.946333 8.272355 -29.052175 6.596228 1.106065 -36.045343 5.813648 -0.147292 -11.497864 -0.000001 0.000001 0.000000 8.077788 -0.486891 -3.806301 0.962327 7.927190 -30.796039 9.105808 2.503115 -35.791397 9.816665 4.559763 -7.505628 -0.000001 -0.000001 -0.000000 -8.207800 -6.751707 -1.599544 -3.562437 -4.043381 4.098784 20.912738 -8.915004 -0.111013 -16.299509 -0.006359 -0.675899 -0.822658 0.009774 0.046110 -0.000000 0.000001 0.000000 8.207799 -6.751704 -1.599547 -27.523342 3.456525 -2.359196 27.556586 13.210960 0.790180 3.055853 -0.312343 7.840453 -0.091375 0.067638 0.037284 -0.000000 -0.000001 0.000000 
